<svg width="405" height="298" viewBox="0 0 405 298" fill="none" xmlns="http://www.w3.org/2000/svg">
<g filter="url(#filter0_i_1_585)">
<rect width="160.383" height="83.453" rx="13.6921" transform="matrix(0.99993 0.0117992 -0.013219 0.999913 29.3207 54.4257)" fill="url(#paint0_linear_1_585)" fill-opacity="0.93"/>
</g>
<path d="M54.0473 68.0401L52.9503 135.058M115.468 68.9929L114.371 136.011M85.23 68.5238L84.133 135.542M146.336 69.4718L145.239 136.49M69.166 68.2746L68.069 135.293M130.902 69.2323L129.805 136.25M100.349 68.7584L99.2517 135.777M161.769 69.7112L160.672 136.729M40.3914 122.993L176.146 125.099M40.8605 94.3284L176.615 96.4344M40.6223 108.863L176.377 110.968M41.0982 79.7944L176.853 81.9004" stroke="url(#paint1_linear_1_585)" stroke-width="0.36362"/>
<path d="M42.7877 71.9424L44.2088 74.359L45.7397 72.0062L46.0011 74.8705L47.0844 74.894L46.4512 69.5338L44.2453 72.774L42.1906 69.4417L41.3115 74.7692L42.3948 74.7926L42.7877 71.9424ZM48.6876 73.8884C48.6899 73.7915 48.7135 73.712 48.7586 73.6499C48.8038 73.583 48.8728 73.5336 48.9657 73.5016C49.0587 73.4649 49.1779 73.448 49.3233 73.4512C49.5026 73.4551 49.6717 73.483 49.8306 73.5349C49.9942 73.5869 50.1404 73.6628 50.2691 73.7626L50.2791 73.3264C50.232 73.2671 50.1534 73.2048 50.0433 73.1394C49.9333 73.074 49.7964 73.0177 49.6326 72.9705C49.4736 72.9234 49.2875 72.8976 49.0743 72.893C48.6574 72.884 48.3329 72.9715 48.1007 73.1556C47.8686 73.3397 47.7487 73.5941 47.7413 73.9189C47.736 74.1467 47.7849 74.3417 47.8878 74.504C47.9958 74.6615 48.1384 74.7834 48.3159 74.8697C48.4933 74.9559 48.6863 75.0013 48.8947 75.0058C49.0983 75.0102 49.293 74.9781 49.4789 74.9094C49.6696 74.8407 49.8248 74.735 49.9444 74.5921C50.069 74.4493 50.1337 74.2713 50.1386 74.058L50.0323 73.6193C50.0286 73.7792 49.9891 73.9166 49.9137 74.0313C49.8384 74.1412 49.7419 74.2264 49.6241 74.2869C49.5065 74.3426 49.3749 74.3688 49.2295 74.3657C49.1277 74.3635 49.0336 74.3445 48.9471 74.3087C48.8656 74.2681 48.8014 74.2134 48.7545 74.1445C48.7077 74.0707 48.6854 73.9854 48.6876 73.8884ZM48.3554 72.521C48.4046 72.4881 48.4807 72.4485 48.5836 72.4023C48.6865 72.356 48.8086 72.3174 48.95 72.2865C49.0913 72.2556 49.2396 72.2419 49.3947 72.2452C49.4965 72.2474 49.5883 72.2591 49.6703 72.2803C49.7522 72.3014 49.8218 72.3345 49.879 72.3793C49.941 72.4243 49.9857 72.4811 50.0133 72.5496C50.0409 72.6132 50.0537 72.6911 50.0515 72.7832L50.0015 74.957L50.9104 74.9767L50.9649 72.6065C50.9701 72.3787 50.9115 72.1859 50.7891 72.028C50.6667 71.8654 50.495 71.7404 50.2739 71.6532C50.0529 71.566 49.7993 71.5193 49.5134 71.5131C49.2031 71.5064 48.921 71.5439 48.6669 71.6257C48.413 71.7027 48.1977 71.7853 48.0211 71.8736L48.3554 72.521ZM52.9685 71.6751L52.0451 71.6551L51.9681 74.9995L52.8915 75.0195L52.9685 71.6751ZM53.9274 72.6778L54.3748 71.8873C54.3089 71.7986 54.2208 71.7313 54.1103 71.6852C54.0047 71.6393 53.8913 71.615 53.7701 71.6124C53.5956 71.6086 53.4245 71.668 53.2568 71.7904C53.0892 71.908 52.9521 72.07 52.8455 72.2762C52.739 72.4775 52.6827 72.7115 52.6766 72.9781L52.9323 73.2455C52.936 73.0856 52.9585 72.9503 52.9999 72.8396C53.0462 72.7242 53.1112 72.6359 53.1951 72.5747C53.2789 72.5135 53.379 72.4841 53.4954 72.4866C53.5923 72.4887 53.6719 72.5074 53.7341 72.5427C53.8013 72.5733 53.8657 72.6183 53.9274 72.6778ZM55.0916 69.3933L54.9611 75.0642L55.8699 75.0839L56.0004 69.4129L55.0916 69.3933ZM57.1756 71.766L55.7043 73.1163L57.2514 75.1138L58.3711 75.138L56.8312 73.1407L58.3026 71.7904L57.1756 71.766ZM60.5181 75.2571C60.9204 75.2658 61.2664 75.1957 61.5559 75.0468C61.8504 74.8931 62.0885 74.6606 62.2703 74.3494L61.4546 74.0771C61.3539 74.235 61.2275 74.3535 61.0754 74.4326C60.9282 74.5071 60.7504 74.542 60.5419 74.5375C60.3578 74.5335 60.2012 74.4889 60.0722 74.4037C59.9432 74.3185 59.8466 74.1976 59.7823 74.041C59.7229 73.8845 59.6957 73.6948 59.7008 73.4718C59.711 73.2393 59.7494 73.0461 59.816 72.8924C59.8875 72.7339 59.9848 72.6172 60.1078 72.5423C60.2357 72.4626 60.3917 72.4248 60.5759 72.4287C60.7262 72.432 60.8563 72.4688 60.9662 72.539C61.0761 72.6093 61.1588 72.7032 61.2143 72.8208C61.2747 72.9385 61.3029 73.0797 61.2991 73.2445C61.2984 73.2785 61.2877 73.3219 61.267 73.3748C61.2514 73.4229 61.2335 73.4613 61.2135 73.49L61.4756 73.1611L59.3017 73.1141L59.2883 73.6957L62.2838 73.7605C62.2894 73.7315 62.2927 73.6928 62.2938 73.6443C62.2998 73.5959 62.3032 73.5499 62.3042 73.5063C62.3125 73.1476 62.2517 72.8408 62.1217 72.5858C61.9919 72.326 61.7977 72.1278 61.5389 71.9913C61.2851 71.85 60.9741 71.7754 60.6057 71.7674C60.2373 71.7595 59.9157 71.8253 59.6409 71.9648C59.3663 72.0995 59.1508 72.2961 58.9945 72.5546C58.8432 72.8083 58.7634 73.1145 58.7551 73.4732C58.747 73.8271 58.8126 74.1364 58.952 74.4013C59.0964 74.6614 59.3026 74.8671 59.5707 75.0184C59.8388 75.1697 60.1546 75.2493 60.5181 75.2571ZM62.8048 71.8877L62.7865 72.6802L64.8514 72.7248L64.8696 71.9324L62.8048 71.8877ZM63.4059 70.7369L63.3022 75.2446L64.211 75.2642L64.3148 70.7565L63.4059 70.7369ZM65.5388 70.652C65.5354 70.8023 65.5882 70.9295 65.6974 71.0337C65.8065 71.1379 65.9386 71.1917 66.0938 71.195C66.2489 71.1984 66.3809 71.1503 66.4899 71.0509C66.6037 70.9515 66.6623 70.8267 66.6658 70.6764C66.6694 70.5213 66.6165 70.3941 66.5073 70.2947C66.403 70.1906 66.2733 70.1369 66.1182 70.1336C65.9631 70.1302 65.8286 70.1782 65.7148 70.2776C65.6011 70.3721 65.5424 70.4969 65.5388 70.652ZM65.6109 71.9484L65.5339 75.2928L66.45 75.3126L66.527 71.9682L65.6109 71.9484ZM69.8376 73.3491L69.7908 75.3848L70.7651 75.4059L70.8143 73.2684C70.8235 72.8661 70.7338 72.5514 70.545 72.3242C70.3564 72.0922 70.0633 71.9719 69.6658 71.9633C69.4283 71.9582 69.2236 72.0047 69.0516 72.1028C68.8846 72.1962 68.748 72.3363 68.6418 72.5231L68.6535 72.0142L67.7083 71.9937L67.6314 75.3382L68.5766 75.3586L68.6234 73.3229C68.6267 73.1823 68.6561 73.0617 68.7118 72.9611C68.7674 72.8604 68.8468 72.7845 68.9498 72.7334C69.0529 72.6775 69.1699 72.6509 69.3008 72.6537C69.4947 72.6579 69.6339 72.7191 69.7185 72.8373C69.803 72.9556 69.8428 73.1261 69.8376 73.3491ZM71.7092 75.6591C71.7219 75.9503 71.7936 76.2089 71.9242 76.4348C72.0595 76.6656 72.2566 76.8445 72.5156 76.9713C72.7744 77.103 73.0977 77.173 73.4855 77.1814C73.8054 77.1883 74.1025 77.1317 74.3769 77.0115C74.6511 76.8962 74.8713 76.707 75.0374 76.4439C75.2083 76.1809 75.2985 75.8434 75.308 75.4314L75.3833 72.1597L74.4744 72.14L74.3991 75.4117C74.3939 75.6395 74.3459 75.8276 74.2552 75.976C74.1694 76.1245 74.0553 76.2335 73.9131 76.3032C73.7757 76.373 73.6294 76.4062 73.4743 76.4028C73.3047 76.3992 73.1575 76.3669 73.0328 76.306C72.9081 76.2451 72.8107 76.1606 72.7404 76.0524C72.67 75.949 72.6341 75.8246 72.6326 75.679L71.7092 75.6591ZM71.6883 73.7237C71.6798 74.0921 71.7477 74.4063 71.8921 74.6665C72.0366 74.9218 72.2309 75.1175 72.4751 75.2537C72.7193 75.39 72.9795 75.461 73.2558 75.467C73.5369 75.4731 73.7856 75.413 74.0019 75.2867C74.2232 75.1557 74.3973 74.9631 74.5244 74.7088C74.6564 74.4547 74.7265 74.1483 74.7347 73.7896C74.7431 73.4261 74.6871 73.1169 74.5669 72.8621C74.4517 72.6026 74.2865 72.4027 74.0715 72.2622C73.8614 72.1219 73.6157 72.0487 73.3346 72.0426C73.0583 72.0366 72.7951 72.0964 72.5448 72.2219C72.2946 72.3475 72.0914 72.5371 71.9353 72.7907C71.7792 73.0395 71.6969 73.3505 71.6883 73.7237ZM72.6626 73.7448C72.6672 73.5412 72.7123 73.3725 72.7979 73.2385C72.8835 73.0997 72.9974 72.9955 73.1397 72.9258C73.2819 72.8562 73.433 72.8231 73.593 72.8265C73.6996 72.8288 73.8033 72.8529 73.9041 72.8987C74.005 72.9397 74.0958 72.9999 74.1764 73.0792C74.2619 73.1586 74.3275 73.257 74.3733 73.3744C74.4191 73.4918 74.4402 73.628 74.4366 73.7831C74.4319 73.9867 74.3843 74.1578 74.2939 74.2965C74.2083 74.4304 74.0969 74.5323 73.9595 74.6021C73.8271 74.6671 73.6906 74.6981 73.55 74.695C73.39 74.6916 73.2406 74.652 73.1017 74.5762C72.9628 74.5005 72.8537 74.3939 72.7745 74.2564C72.6953 74.114 72.658 73.9435 72.6626 73.7448ZM78.9571 74.4264L78.4855 75.0054C78.6087 75.1293 78.7466 75.2463 78.8993 75.3562C79.0569 75.4615 79.2319 75.5477 79.4244 75.6149C79.6217 75.6822 79.8391 75.7184 80.0766 75.7236C80.4595 75.7319 80.7621 75.6463 80.9845 75.4668C81.207 75.2825 81.322 75.0231 81.3297 74.6887C81.3344 74.4851 81.2922 74.3193 81.203 74.1913C81.1138 74.0633 80.9926 73.9564 80.8394 73.8706C80.6911 73.7801 80.5281 73.699 80.3503 73.6273C80.2063 73.5611 80.0767 73.505 79.9614 73.4588C79.8509 73.4128 79.7648 73.3625 79.703 73.3078C79.6461 73.2484 79.6186 73.1823 79.6202 73.1096C79.6221 73.0272 79.6526 72.9672 79.7117 72.9297C79.7757 72.8875 79.861 72.8675 79.9676 72.8698C80.1276 72.8732 80.289 72.9179 80.4519 73.0039C80.6197 73.09 80.7627 73.1998 80.8808 73.3332L81.3086 72.7606C81.2044 72.6516 81.083 72.5569 80.9442 72.4763C80.8055 72.3908 80.6543 72.3221 80.4906 72.2701C80.327 72.218 80.1506 72.19 79.9616 72.1859C79.7386 72.1811 79.5342 72.213 79.3483 72.2817C79.1674 72.3457 79.022 72.4468 78.9121 72.5851C78.8024 72.7185 78.7452 72.8846 78.7406 73.0833C78.7358 73.2917 78.7779 73.4648 78.8669 73.6025C78.9608 73.7355 79.0796 73.8447 79.2231 73.9303C79.3667 74.0109 79.5154 74.0821 79.6692 74.1436C79.8328 74.2005 79.9673 74.2543 80.0728 74.3051C80.1784 74.3558 80.2571 74.4133 80.3089 74.4775C80.3657 74.5369 80.3932 74.6102 80.3911 74.6975C80.3889 74.7944 80.3532 74.8712 80.284 74.9279C80.2149 74.9798 80.1174 75.0043 79.9913 75.0016C79.8944 74.9995 79.7906 74.9779 79.68 74.9367C79.5743 74.8956 79.4617 74.835 79.3423 74.7548C79.223 74.6698 79.0946 74.5603 78.9571 74.4264ZM81.7881 72.2981L81.7699 73.0906L83.8348 73.1352L83.853 72.3428L81.7881 72.2981ZM82.3893 71.1473L82.2856 75.655L83.1944 75.6746L83.2981 71.1669L82.3893 71.1473ZM85.4594 72.3775L84.5361 72.3575L84.4591 75.7019L85.3825 75.7219L85.4594 72.3775ZM86.4184 73.3802L86.8658 72.5897C86.7999 72.501 86.7118 72.4336 86.6013 72.3876C86.4956 72.3417 86.3822 72.3174 86.2611 72.3148C86.0866 72.311 85.9155 72.3704 85.7478 72.4928C85.5802 72.6104 85.4431 72.7724 85.3365 72.9786C85.23 73.1799 85.1737 73.4139 85.1676 73.6805L85.4233 73.9479C85.427 73.788 85.4495 73.6527 85.4908 73.542C85.5371 73.4266 85.6022 73.3383 85.6861 73.2771C85.7699 73.2159 85.87 73.1865 85.9863 73.189C86.0833 73.1911 86.1629 73.2098 86.2251 73.2451C86.2923 73.2757 86.3567 73.3207 86.4184 73.3802ZM88.1667 74.7419C88.169 74.645 88.1926 74.5655 88.2377 74.5034C88.2829 74.4365 88.3519 74.387 88.4448 74.3551C88.5378 74.3183 88.657 74.3015 88.8024 74.3046C88.9817 74.3085 89.1508 74.3364 89.3096 74.3884C89.4733 74.4404 89.6195 74.5163 89.7481 74.6161L89.7582 74.1798C89.711 74.1206 89.6325 74.0583 89.5224 73.9929C89.4124 73.9275 89.2755 73.8712 89.1117 73.824C88.9527 73.7769 88.7666 73.751 88.5533 73.7464C88.1365 73.7374 87.812 73.825 87.5798 74.0091C87.3476 74.1932 87.2278 74.4476 87.2204 74.7724C87.2151 75.0002 87.264 75.1952 87.3669 75.3575C87.4748 75.515 87.6175 75.6369 87.795 75.7231C87.9724 75.8094 88.1654 75.8548 88.3738 75.8593C88.5774 75.8637 88.7721 75.8315 88.958 75.7628C89.1487 75.6942 89.3039 75.5885 89.4235 75.4456C89.5481 75.3028 89.6128 75.1247 89.6177 74.9115L89.5114 74.4727C89.5077 74.6327 89.4682 74.77 89.3928 74.8848C89.3175 74.9947 89.221 75.0799 89.1032 75.1404C88.9855 75.196 88.854 75.2223 88.7086 75.2192C88.6068 75.217 88.5127 75.1979 88.4262 75.1621C88.3447 75.1216 88.2805 75.0668 88.2336 74.9979C88.1868 74.9242 88.1645 74.8388 88.1667 74.7419ZM87.8345 73.3745C87.8837 73.3416 87.9598 73.302 88.0627 73.2557C88.1656 73.2095 88.2877 73.1709 88.4291 73.14C88.5704 73.1091 88.7187 73.0953 88.8738 73.0987C88.9756 73.1009 89.0674 73.1126 89.1494 73.1337C89.2313 73.1549 89.3009 73.1879 89.3581 73.2328C89.4201 73.2778 89.4648 73.3345 89.4924 73.403C89.52 73.4667 89.5327 73.5445 89.5306 73.6366L89.4806 75.8105L90.3894 75.8301L90.444 73.46C90.4492 73.2322 90.3906 73.0393 90.2682 72.8815C90.1458 72.7188 89.9741 72.5939 89.753 72.5067C89.532 72.4195 89.2784 72.3727 88.9925 72.3666C88.6822 72.3599 88.4001 72.3974 88.146 72.4792C87.8921 72.5562 87.6768 72.6388 87.5002 72.7271L87.8345 73.3745ZM91.0952 72.4993L91.077 73.2918L93.1419 73.3364L93.1601 72.544L91.0952 72.4993ZM91.6964 71.3485L91.5926 75.8562L92.5015 75.8758L92.6052 71.3681L91.6964 71.3485ZM95.3423 76.01C95.7446 76.0187 96.0905 75.9485 96.38 75.7996C96.6746 75.646 96.9127 75.4135 97.0944 75.1022L96.2787 74.83C96.1781 74.9878 96.0517 75.1063 95.8995 75.1855C95.7523 75.2599 95.5745 75.2948 95.3661 75.2903C95.1819 75.2864 95.0253 75.2417 94.8963 75.1565C94.7674 75.0713 94.6707 74.9504 94.6064 74.7938C94.547 74.6374 94.5198 74.4476 94.525 74.2247C94.5352 73.9921 94.5736 73.799 94.6401 73.6452C94.7117 73.4868 94.8089 73.3701 94.9319 73.2951C95.0598 73.2154 95.2159 73.1776 95.4001 73.1816C95.5503 73.1848 95.6804 73.2216 95.7903 73.2919C95.9003 73.3621 95.983 73.456 96.0385 73.5736C96.0988 73.6913 96.1271 73.8326 96.1233 73.9974C96.1225 74.0313 96.1118 74.0747 96.0912 74.1276C96.0755 74.1758 96.0577 74.2142 96.0376 74.2428L96.2998 73.9139L94.1258 73.8669L94.1124 74.4485L97.108 74.5133C97.1135 74.4843 97.1168 74.4456 97.1179 74.3971C97.1239 74.3488 97.1274 74.3028 97.1284 74.2591C97.1366 73.9005 97.0758 73.5936 96.9459 73.3387C96.8161 73.0788 96.6218 72.8807 96.3631 72.7441C96.1093 72.6029 95.7982 72.5282 95.4298 72.5203C95.0614 72.5123 94.7399 72.5781 94.4651 72.7176C94.1904 72.8523 93.9749 73.0489 93.8186 73.3074C93.6673 73.5612 93.5875 73.8674 93.5793 74.2261C93.5711 74.5799 93.6367 74.8892 93.7761 75.1541C93.9205 75.4143 94.1267 75.62 94.3948 75.7712C94.6629 75.9225 94.9787 76.0021 95.3423 76.01ZM97.8156 76.2235C97.8283 76.5147 97.9 76.7733 98.0305 76.9992C98.1659 77.23 98.363 77.4088 98.622 77.5357C98.8808 77.6674 99.2041 77.7374 99.5919 77.7458C99.9118 77.7527 100.209 77.6961 100.483 77.5759C100.757 77.4606 100.978 77.2714 101.144 77.0083C101.315 76.7452 101.405 76.4077 101.414 75.9957L101.49 72.724L100.581 72.7044L100.506 75.9761C100.5 76.2039 100.452 76.392 100.362 76.5404C100.276 76.6888 100.162 76.7979 100.019 76.8676C99.8821 76.9373 99.7358 76.9706 99.5807 76.9672C99.4111 76.9635 99.2639 76.9313 99.1392 76.8704C99.0145 76.8095 98.917 76.7249 98.8468 76.6167C98.7764 76.5134 98.7405 76.3889 98.739 76.2434L97.8156 76.2235ZM97.7947 74.2881C97.7862 74.6565 97.8541 74.9707 97.9985 75.2309C98.1429 75.4861 98.3373 75.6819 98.5815 75.8181C98.8257 75.9543 99.0859 76.0254 99.3622 76.0314C99.6433 76.0375 99.892 75.9774 100.108 75.8511C100.33 75.7201 100.504 75.5275 100.631 75.2732C100.763 75.019 100.833 74.7126 100.841 74.3539C100.849 73.9904 100.794 73.6813 100.673 73.4265C100.558 73.167 100.393 72.967 100.178 72.8266C99.9678 72.6863 99.7221 72.6131 99.441 72.607C99.1647 72.601 98.9014 72.6608 98.6512 72.7863C98.401 72.9118 98.1978 73.1014 98.0416 73.3551C97.8856 73.6039 97.8033 73.9149 97.7947 74.2881ZM98.7689 74.3092C98.7736 74.1056 98.8187 73.9368 98.9043 73.8029C98.9899 73.6641 99.1038 73.5599 99.2461 73.4902C99.3883 73.4206 99.5394 73.3875 99.6994 73.3909C99.806 73.3932 99.9097 73.4173 100.01 73.4631C100.111 73.5041 100.202 73.5642 100.283 73.6436C100.368 73.723 100.434 73.8214 100.48 73.9388C100.525 74.0562 100.547 74.1924 100.543 74.3475C100.538 74.5511 100.491 74.7222 100.4 74.8609C100.315 74.9948 100.203 75.0967 100.066 75.1664C99.9334 75.2315 99.7969 75.2625 99.6564 75.2594C99.4964 75.256 99.347 75.2164 99.2081 75.1406C99.0692 75.0649 98.9601 74.9583 98.8808 74.8208C98.8017 74.6784 98.7644 74.5079 98.7689 74.3092ZM105.77 72.8165L104.788 72.7953L103.673 75.419L104.138 75.4436L103.123 72.7593L102.076 72.7367L103.396 75.7767L102.508 77.6924L103.475 77.7133L105.77 72.8165Z" fill="#353E6C"/>
<path d="M157.109 74.2096L158.338 73.9161L158.244 78.0021L159.255 78.024L159.374 72.8474L157.131 73.2717L157.109 74.2096ZM164.514 76.4937C164.522 76.1447 164.456 75.8451 164.317 75.5947C164.182 75.3397 164 75.1418 163.77 75.001C163.541 74.8603 163.288 74.7869 163.011 74.7809C162.861 74.7777 162.713 74.789 162.567 74.815C162.426 74.8362 162.291 74.8793 162.164 74.9445L162.493 73.9041L164.493 73.9473L164.514 73.0458L161.743 72.9859L160.98 75.8354C161.156 75.7422 161.323 75.6731 161.479 75.628C161.64 75.5781 161.796 75.5451 161.947 75.529C162.098 75.508 162.241 75.499 162.377 75.5019C162.561 75.5059 162.73 75.5435 162.883 75.6147C163.042 75.6811 163.166 75.7784 163.255 75.9064C163.349 76.0345 163.394 76.1907 163.389 76.3749C163.385 76.5639 163.34 76.7229 163.255 76.852C163.17 76.9763 163.049 77.0706 162.892 77.1351C162.74 77.1998 162.555 77.2297 162.337 77.225C162.196 77.222 162.049 77.1921 161.895 77.1354C161.741 77.0739 161.593 76.9931 161.45 76.893C161.311 76.793 161.183 76.6812 161.065 76.5574L160.559 77.3539C160.696 77.4975 160.856 77.6318 161.037 77.757C161.219 77.8773 161.43 77.9764 161.67 78.0544C161.916 78.1324 162.194 78.1748 162.504 78.1815C162.751 78.1869 162.992 78.1581 163.226 78.0953C163.46 78.0325 163.674 77.9328 163.866 77.7963C164.058 77.6599 164.213 77.4838 164.329 77.2681C164.446 77.0524 164.507 76.7942 164.514 76.4937ZM165.229 74.2324C165.224 74.465 165.275 74.6819 165.381 74.8831C165.493 75.0795 165.647 75.238 165.843 75.3586C166.039 75.4792 166.261 75.5422 166.508 75.5476C166.76 75.553 166.985 75.4997 167.181 75.3875C167.383 75.2755 167.541 75.1237 167.657 74.9323C167.773 74.736 167.834 74.5215 167.839 74.2888C167.845 74.0465 167.794 73.8271 167.687 73.6309C167.58 73.4346 167.428 73.2785 167.232 73.1628C167.041 73.0422 166.819 72.9793 166.567 72.9738C166.32 72.9685 166.096 73.0218 165.894 73.1338C165.693 73.241 165.532 73.3903 165.411 73.5817C165.295 73.7731 165.235 73.99 165.229 74.2324ZM166.014 74.2494C166.017 74.1476 166.041 74.056 166.086 73.9745C166.132 73.893 166.194 73.8289 166.272 73.7821C166.351 73.7305 166.444 73.7058 166.551 73.7081C166.657 73.7104 166.746 73.739 166.818 73.7939C166.894 73.8441 166.953 73.9108 166.995 73.9942C167.037 74.0775 167.056 74.1701 167.054 74.2718C167.052 74.3688 167.028 74.4604 166.982 74.5467C166.937 74.6282 166.875 74.6923 166.796 74.7391C166.722 74.786 166.632 74.8083 166.525 74.806C166.419 74.8037 166.327 74.7774 166.251 74.7273C166.174 74.6771 166.115 74.6104 166.073 74.5271C166.032 74.4389 166.012 74.3463 166.014 74.2494ZM168.474 77.0522C168.469 77.2897 168.519 77.5065 168.626 77.7028C168.738 77.8992 168.892 78.0577 169.088 78.1784C169.284 78.299 169.506 78.362 169.753 78.3673C170.005 78.3728 170.229 78.3194 170.426 78.2073C170.627 78.0953 170.786 77.9435 170.902 77.752C171.018 77.5606 171.079 77.3461 171.084 77.1086C171.09 76.8711 171.039 76.6542 170.932 76.4579C170.825 76.2568 170.673 76.0983 170.477 75.9825C170.286 75.862 170.064 75.799 169.812 75.7936C169.565 75.7882 169.341 75.8416 169.139 75.9536C168.938 76.0608 168.777 76.2125 168.656 76.4087C168.54 76.6002 168.479 76.8146 168.474 77.0522ZM169.259 77.0691C169.262 76.9673 169.286 76.8757 169.331 76.7943C169.377 76.7128 169.439 76.6487 169.517 76.6019C169.596 76.5551 169.689 76.5329 169.795 76.5352C169.902 76.5375 169.991 76.5636 170.063 76.6137C170.139 76.6638 170.198 76.7306 170.24 76.8139C170.282 76.8973 170.301 76.9898 170.299 77.0916C170.297 77.1885 170.273 77.2802 170.227 77.3665C170.182 77.4479 170.12 77.512 170.041 77.5588C169.967 77.6057 169.877 77.628 169.77 77.6257C169.664 77.6234 169.572 77.5972 169.496 77.5471C169.419 77.4969 169.36 77.4302 169.318 77.3468C169.277 77.2586 169.257 77.1661 169.259 77.0691ZM169.597 73.1557L165.771 78.1649L166.724 78.1854L170.549 73.1763L169.597 73.1557Z" fill="#45B751"/>
<path d="M175.565 73.2254L177.964 76.2422L173.152 76.2375L175.565 73.2254Z" fill="#45B751"/>
<path d="M69.7568 100.417C58.2281 93.7653 45.1729 96.2607 40.0864 98.34L39.7335 120.349L175.397 123.185L175.625 108.963C172.724 103.821 163.583 95.2504 150.226 102.099C133.531 110.661 123.358 106.693 115.467 99.9158C109.155 94.4936 100.937 97.8561 97.6178 100.215C93.1345 103.054 81.2855 107.069 69.7568 100.417Z" fill="url(#paint2_linear_1_585)"/>
<path d="M40.0865 98.3359C45.1612 96.2597 58.1863 93.7676 69.6883 100.41C81.1902 107.052 93.0118 103.042 97.4849 100.207C100.797 97.8517 108.995 94.494 115.293 99.9081C123.165 106.676 133.315 110.637 149.972 102.088C163.297 95.2487 172.417 103.807 175.311 108.941" stroke="#24B8D2" stroke-width="0.72724" stroke-linecap="round" stroke-linejoin="round"/>
<path d="M93.5306 103.782C67.0049 57.5575 41.0763 111.199 40.0159 111.18L39.9096 116.726C39.7732 123.835 45.4253 129.699 52.5339 129.826L162.299 131.777C169.408 131.903 175.281 126.243 175.417 119.135L175.791 99.6223C162.14 122.089 154.316 117.052 152.111 111.725C146.977 100.928 133.252 83.7711 119.423 101.515C105.594 119.258 96.3995 110.419 93.5306 103.782Z" fill="url(#paint3_linear_1_585)"/>
<path d="M40.1507 111.152C41.2086 111.171 67.0763 57.5871 93.5374 103.761C96.3992 110.391 105.572 119.22 119.368 101.495C133.164 83.7708 146.856 100.909 151.977 111.694C154.177 117.015 161.982 122.047 175.601 99.6038" stroke="#7F7CFF" stroke-width="0.727241" stroke-linecap="round" stroke-linejoin="round"/>
<g filter="url(#filter1_i_1_585)">
<rect width="130.384" height="63.8264" rx="13.6921" transform="matrix(0.999992 0.00412006 -0.00554003 0.999985 202.207 71.0459)" fill="url(#paint4_linear_1_585)" fill-opacity="0.93"/>
</g>
<path d="M261.515 100.176L265.226 100.262C265.105 100.653 264.936 101.013 264.719 101.34C264.501 101.668 264.236 101.957 263.922 102.208C263.62 102.46 263.258 102.655 262.836 102.793C262.414 102.919 261.938 102.975 261.409 102.963C260.609 102.944 259.893 102.743 259.262 102.359C258.644 101.975 258.158 101.446 257.805 100.773C257.452 100.088 257.287 99.3018 257.309 98.4155C257.331 97.517 257.535 96.7458 257.92 96.102C258.317 95.4585 258.841 94.9719 259.489 94.6421C260.138 94.3 260.85 94.138 261.626 94.156C262.45 94.1752 263.141 94.3698 263.699 94.7399C264.269 95.098 264.707 95.5639 265.013 96.1375L267.298 94.8789C266.919 94.2667 266.458 93.7387 265.914 93.295C265.384 92.8393 264.764 92.4801 264.056 92.2173C263.361 91.9548 262.57 91.8133 261.684 91.7927C260.687 91.7696 259.76 91.9081 258.902 92.2084C258.045 92.5087 257.295 92.947 256.653 93.5232C256.011 94.0995 255.501 94.802 255.123 95.6307C254.758 96.4473 254.564 97.3542 254.539 98.3512C254.515 99.3482 254.658 100.269 254.97 101.114C255.294 101.959 255.756 102.69 256.357 103.307C256.97 103.925 257.691 104.41 258.52 104.762C259.361 105.114 260.28 105.301 261.277 105.324C262.336 105.349 263.282 105.18 264.116 104.818C264.95 104.455 265.652 103.948 266.223 103.296C266.806 102.633 267.237 101.867 267.517 100.999C267.809 100.131 267.949 99.2046 267.936 98.219L261.566 98.0711L261.515 100.176ZM272.254 96.7306L269.91 96.6761L269.701 105.169L272.046 105.224L272.254 96.7306ZM274.686 99.281L275.825 97.2754C275.658 97.0498 275.435 96.8784 275.154 96.761C274.886 96.6439 274.598 96.5818 274.29 96.5747C273.847 96.5644 273.413 96.7144 272.986 97.0247C272.56 97.3227 272.211 97.7333 271.94 98.2566C271.669 98.7676 271.525 99.3615 271.508 100.039L272.156 100.719C272.166 100.312 272.224 99.9689 272.33 99.6881C272.448 99.3953 272.613 99.1713 272.826 99.0161C273.04 98.861 273.294 98.7868 273.589 98.7937C273.835 98.7994 274.038 98.8472 274.195 98.9371C274.366 99.015 274.529 99.1296 274.686 99.281ZM276.157 101.07C276.135 101.944 276.319 102.724 276.709 103.411C277.111 104.085 277.658 104.615 278.351 105.001C279.056 105.386 279.857 105.59 280.756 105.611C281.655 105.632 282.459 105.466 283.17 105.113C283.893 104.76 284.466 104.256 284.888 103.601C285.323 102.933 285.552 102.163 285.573 101.289C285.595 100.403 285.405 99.6224 285.003 98.948C284.613 98.2739 284.065 97.7439 283.361 97.358C282.668 96.9725 281.872 96.7693 280.974 96.7484C280.075 96.7275 279.265 96.8934 278.541 97.2461C277.831 97.5991 277.258 98.103 276.823 98.758C276.401 99.4132 276.178 100.184 276.157 101.07ZM278.594 101.127C278.606 100.647 278.715 100.224 278.921 99.8597C279.139 99.4953 279.423 99.2186 279.772 99.0297C280.122 98.8408 280.506 98.7512 280.924 98.7609C281.343 98.7706 281.722 98.8779 282.062 99.0829C282.402 99.2878 282.666 99.5772 282.853 99.9511C283.054 100.325 283.148 100.752 283.136 101.232C283.124 101.712 283.009 102.135 282.791 102.499C282.585 102.851 282.307 103.128 281.957 103.329C281.608 103.518 281.224 103.608 280.805 103.598C280.387 103.588 280.008 103.481 279.668 103.276C279.328 103.059 279.058 102.769 278.858 102.408C278.67 102.034 278.582 101.607 278.594 101.127ZM285.946 97.0486L289.896 106.211L292.687 100.863L295.287 106.336L299.664 97.3673L297.135 97.3085L295.135 101.991L292.775 96.5607L290.243 101.859L288.494 97.1078L285.946 97.0486Z" fill="#303030"/>
<path d="M256.265 110.44L257.91 113.248L259.692 110.519L259.99 113.845L261.248 113.874L260.523 107.65L257.956 111.408L255.576 107.535L254.546 113.719L255.804 113.748L256.265 110.44ZM262.9 112.705C262.903 112.592 262.93 112.5 262.983 112.428C263.035 112.351 263.116 112.293 263.223 112.256C263.331 112.214 263.47 112.195 263.639 112.198C263.847 112.203 264.043 112.236 264.227 112.297C264.417 112.357 264.587 112.446 264.736 112.562L264.749 112.055C264.694 111.987 264.603 111.914 264.475 111.838C264.348 111.762 264.189 111.696 263.999 111.641C263.814 111.586 263.598 111.556 263.351 111.55C262.867 111.539 262.49 111.64 262.22 111.853C261.95 112.066 261.81 112.362 261.801 112.739C261.795 113.003 261.851 113.229 261.97 113.418C262.095 113.601 262.261 113.743 262.467 113.843C262.672 113.944 262.896 113.997 263.138 114.003C263.375 114.008 263.601 113.971 263.817 113.892C264.038 113.812 264.219 113.69 264.358 113.524C264.503 113.359 264.578 113.152 264.584 112.904L264.462 112.395C264.457 112.581 264.411 112.74 264.323 112.873C264.235 113.001 264.123 113.099 263.986 113.169C263.85 113.234 263.697 113.264 263.528 113.26C263.41 113.257 263.301 113.235 263.2 113.193C263.106 113.146 263.031 113.082 262.977 113.002C262.923 112.917 262.897 112.817 262.9 112.705ZM262.517 111.117C262.574 111.079 262.662 111.033 262.782 110.979C262.901 110.926 263.043 110.881 263.207 110.846C263.372 110.81 263.544 110.794 263.724 110.799C263.842 110.801 263.949 110.815 264.044 110.84C264.139 110.865 264.22 110.903 264.286 110.955C264.358 111.008 264.41 111.073 264.441 111.153C264.473 111.227 264.488 111.317 264.485 111.424L264.423 113.948L265.478 113.972L265.546 111.221C265.553 110.956 265.485 110.732 265.343 110.549C265.201 110.36 265.002 110.215 264.746 110.113C264.489 110.011 264.195 109.957 263.863 109.949C263.503 109.94 263.175 109.984 262.88 110.078C262.585 110.167 262.335 110.262 262.13 110.365L262.517 111.117ZM267.663 110.138L266.591 110.114L266.495 113.996L267.567 114.021L267.663 110.138ZM268.774 111.304L269.295 110.387C269.219 110.284 269.117 110.206 268.988 110.152C268.866 110.099 268.734 110.07 268.594 110.067C268.391 110.062 268.192 110.131 267.997 110.273C267.803 110.409 267.643 110.597 267.519 110.836C267.395 111.07 267.329 111.341 267.322 111.651L267.618 111.962C267.623 111.776 267.649 111.619 267.697 111.49C267.751 111.357 267.827 111.254 267.924 111.183C268.022 111.112 268.138 111.078 268.273 111.082C268.386 111.084 268.478 111.106 268.55 111.147C268.628 111.183 268.703 111.235 268.774 111.304ZM269.921 107.488L269.759 114.072L270.814 114.096L270.976 107.513L269.921 107.488ZM272.336 110.247L270.625 111.812L272.418 114.134L273.718 114.164L271.933 111.842L273.644 110.277L272.336 110.247ZM275.999 114.301C276.466 114.312 276.868 114.231 277.204 114.059C277.546 113.881 277.823 113.612 278.035 113.251L277.088 112.933C276.971 113.116 276.824 113.254 276.647 113.345C276.476 113.431 276.27 113.472 276.028 113.466C275.814 113.461 275.632 113.409 275.483 113.31C275.333 113.21 275.221 113.07 275.147 112.888C275.078 112.706 275.047 112.486 275.053 112.227C275.066 111.957 275.111 111.733 275.188 111.555C275.271 111.371 275.385 111.236 275.527 111.149C275.676 111.056 275.857 111.013 276.071 111.018C276.246 111.022 276.397 111.065 276.524 111.147C276.652 111.228 276.747 111.338 276.812 111.474C276.881 111.611 276.914 111.775 276.909 111.966C276.908 112.006 276.896 112.056 276.872 112.117C276.854 112.173 276.833 112.218 276.809 112.251L277.114 111.87L274.591 111.811L274.574 112.486L278.052 112.567C278.058 112.533 278.062 112.488 278.063 112.432C278.07 112.376 278.074 112.323 278.076 112.272C278.086 111.856 278.016 111.499 277.865 111.203C277.715 110.901 277.49 110.671 277.19 110.512C276.896 110.347 276.535 110.26 276.107 110.25C275.679 110.24 275.306 110.316 274.987 110.477C274.667 110.633 274.417 110.861 274.235 111.161C274.059 111.455 273.966 111.811 273.955 112.227C273.945 112.638 274.021 112.997 274.182 113.305C274.349 113.607 274.588 113.846 274.899 114.022C275.21 114.199 275.577 114.291 275.999 114.301ZM278.449 110.389L278.426 111.309L280.823 111.365L280.846 110.445L278.449 110.389ZM279.149 109.054L279.02 114.287L280.075 114.312L280.204 109.079L279.149 109.054ZM281.414 108.955C281.41 109.129 281.471 109.277 281.597 109.398C281.724 109.519 281.877 109.582 282.057 109.586C282.237 109.59 282.391 109.535 282.517 109.419C282.65 109.304 282.718 109.159 282.722 108.985C282.727 108.805 282.666 108.657 282.539 108.542C282.418 108.421 282.268 108.358 282.088 108.354C281.907 108.35 281.751 108.405 281.619 108.52C281.487 108.63 281.418 108.775 281.414 108.955ZM281.495 110.46L281.4 114.342L282.463 114.367L282.559 110.484L281.495 110.46ZM286.189 112.089L286.131 114.452L287.262 114.478L287.323 111.997C287.334 111.53 287.231 111.164 287.012 110.9C286.793 110.631 286.453 110.49 285.992 110.48C285.716 110.473 285.478 110.527 285.278 110.641C285.084 110.749 284.926 110.911 284.802 111.128L284.817 110.537L283.719 110.511L283.624 114.394L284.721 114.419L284.779 112.056C284.783 111.893 284.818 111.753 284.882 111.636C284.947 111.52 285.039 111.432 285.159 111.372C285.279 111.308 285.415 111.277 285.567 111.281C285.792 111.286 285.953 111.357 286.051 111.495C286.149 111.632 286.195 111.83 286.189 112.089ZM288.146 114.769C288.16 115.107 288.243 115.408 288.394 115.67C288.551 115.938 288.78 116.146 289.08 116.294C289.38 116.448 289.755 116.529 290.206 116.54C290.577 116.549 290.922 116.483 291.241 116.344C291.559 116.211 291.815 115.992 292.009 115.687C292.208 115.382 292.313 114.99 292.325 114.512L292.418 110.713L291.363 110.689L291.27 114.487C291.263 114.752 291.207 114.97 291.101 115.142C291.001 115.314 290.869 115.441 290.704 115.521C290.544 115.602 290.374 115.64 290.194 115.636C289.997 115.631 289.826 115.594 289.682 115.523C289.537 115.452 289.424 115.353 289.343 115.228C289.261 115.108 289.22 114.963 289.218 114.794L288.146 114.769ZM288.126 112.522C288.115 112.95 288.193 113.315 288.36 113.617C288.528 113.914 288.753 114.142 289.036 114.3C289.319 114.459 289.621 114.542 289.942 114.549C290.268 114.557 290.557 114.487 290.809 114.341C291.066 114.19 291.268 113.966 291.416 113.671C291.57 113.377 291.652 113.021 291.662 112.605C291.672 112.182 291.608 111.823 291.469 111.528C291.336 111.226 291.144 110.994 290.895 110.83C290.651 110.667 290.366 110.581 290.04 110.574C289.719 110.566 289.413 110.635 289.123 110.78C288.832 110.926 288.596 111.145 288.414 111.44C288.232 111.728 288.136 112.089 288.126 112.522ZM289.257 112.549C289.262 112.312 289.315 112.116 289.415 111.961C289.514 111.8 289.647 111.679 289.812 111.599C289.977 111.518 290.153 111.48 290.338 111.484C290.462 111.487 290.583 111.515 290.699 111.569C290.817 111.617 290.922 111.687 291.015 111.779C291.114 111.871 291.19 111.986 291.243 112.122C291.296 112.258 291.32 112.416 291.316 112.596C291.31 112.833 291.255 113.031 291.149 113.192C291.05 113.348 290.92 113.466 290.761 113.546C290.607 113.622 290.448 113.657 290.285 113.654C290.099 113.649 289.926 113.603 289.765 113.515C289.604 113.427 289.477 113.303 289.386 113.143C289.294 112.977 289.251 112.779 289.257 112.549ZM295.543 109.849L297.129 109.886L297.011 114.705L298.218 114.733L298.336 109.914L299.932 109.951L299.958 108.862L295.569 108.76L295.543 109.849ZM300.889 110.91L299.817 110.885L299.722 114.768L300.794 114.793L300.889 110.91ZM302.001 112.076L302.522 111.159C302.445 111.056 302.343 110.978 302.215 110.924C302.092 110.871 301.961 110.842 301.82 110.839C301.617 110.834 301.419 110.903 301.224 111.045C301.029 111.181 300.87 111.369 300.745 111.608C300.621 111.841 300.556 112.113 300.548 112.422L300.844 112.733C300.849 112.548 300.875 112.391 300.924 112.262C300.978 112.128 301.053 112.026 301.151 111.955C301.248 111.884 301.364 111.85 301.499 111.853C301.612 111.856 301.704 111.878 301.777 111.919C301.854 111.955 301.929 112.007 302.001 112.076ZM303.817 113.655C303.82 113.543 303.847 113.451 303.9 113.379C303.952 113.301 304.033 113.244 304.14 113.207C304.248 113.164 304.387 113.145 304.556 113.149C304.764 113.154 304.96 113.186 305.144 113.247C305.334 113.308 305.504 113.396 305.653 113.512L305.666 113.006C305.611 112.937 305.52 112.864 305.392 112.788C305.265 112.712 305.106 112.647 304.916 112.591C304.731 112.537 304.515 112.506 304.268 112.5C303.784 112.489 303.407 112.59 303.137 112.803C302.867 113.017 302.727 113.312 302.718 113.689C302.712 113.953 302.768 114.18 302.887 114.368C303.012 114.552 303.178 114.693 303.384 114.794C303.589 114.894 303.813 114.947 304.055 114.953C304.292 114.958 304.518 114.922 304.734 114.842C304.955 114.763 305.135 114.64 305.275 114.475C305.42 114.309 305.495 114.103 305.501 113.855L305.378 113.345C305.374 113.531 305.328 113.69 305.24 113.824C305.152 113.951 305.04 114.05 304.903 114.12C304.767 114.184 304.614 114.214 304.445 114.21C304.327 114.208 304.218 114.185 304.117 114.144C304.023 114.096 303.948 114.033 303.894 113.953C303.84 113.867 303.814 113.768 303.817 113.655ZM303.434 112.067C303.491 112.029 303.579 111.983 303.699 111.93C303.818 111.876 303.96 111.832 304.124 111.796C304.289 111.761 304.461 111.745 304.641 111.749C304.759 111.752 304.866 111.765 304.961 111.79C305.056 111.815 305.136 111.853 305.203 111.906C305.275 111.958 305.326 112.024 305.358 112.103C305.39 112.177 305.405 112.268 305.402 112.375L305.34 114.898L306.395 114.923L306.463 112.171C306.47 111.907 306.402 111.683 306.26 111.499C306.118 111.31 305.919 111.165 305.663 111.063C305.406 110.962 305.112 110.907 304.78 110.899C304.42 110.891 304.092 110.934 303.797 111.028C303.502 111.117 303.252 111.213 303.047 111.315L303.434 112.067ZM307.179 111.056L307.156 111.976L309.587 112.033L309.609 111.113L307.179 111.056ZM309.531 109.506L310.015 108.698C309.966 108.641 309.897 108.58 309.808 108.516C309.726 108.452 309.623 108.399 309.5 108.357C309.377 108.309 309.229 108.283 309.054 108.279C308.762 108.272 308.513 108.323 308.307 108.431C308.102 108.533 307.946 108.684 307.84 108.884C307.734 109.085 307.677 109.334 307.67 109.632L307.539 114.949L308.594 114.974L308.719 109.901C308.722 109.755 308.742 109.634 308.778 109.54C308.814 109.445 308.861 109.378 308.918 109.34C308.981 109.297 309.055 109.276 309.139 109.278C309.207 109.279 309.274 109.298 309.341 109.333C309.413 109.363 309.477 109.421 309.531 109.506ZM309.932 111.12L309.909 112.04L312.34 112.097L312.363 111.177L309.932 111.12ZM312.284 109.57L312.768 108.762C312.719 108.705 312.65 108.644 312.562 108.58C312.479 108.516 312.376 108.463 312.253 108.421C312.13 108.373 311.982 108.347 311.807 108.343C311.515 108.336 311.266 108.387 311.06 108.495C310.855 108.597 310.699 108.748 310.593 108.948C310.487 109.149 310.43 109.398 310.423 109.696L310.292 115.013L311.347 115.038L311.472 109.965C311.475 109.819 311.495 109.698 311.531 109.604C311.567 109.509 311.614 109.442 311.671 109.404C311.734 109.361 311.808 109.34 311.892 109.342C311.96 109.343 312.027 109.362 312.094 109.397C312.166 109.427 312.23 109.485 312.284 109.57ZM313 109.688C312.996 109.863 313.057 110.011 313.184 110.132C313.31 110.253 313.463 110.316 313.643 110.32C313.823 110.324 313.977 110.268 314.104 110.153C314.236 110.038 314.304 109.893 314.309 109.719C314.313 109.539 314.252 109.391 314.125 109.275C314.004 109.154 313.854 109.092 313.674 109.088C313.494 109.083 313.337 109.139 313.205 109.254C313.073 109.363 313.005 109.508 313 109.688ZM313.081 111.193L312.986 115.076L314.049 115.101L314.145 111.218L313.081 111.193ZM316.085 113.206C316.09 112.986 316.146 112.793 316.251 112.627C316.357 112.46 316.495 112.331 316.666 112.239C316.843 112.142 317.035 112.096 317.244 112.101C317.401 112.105 317.558 112.134 317.714 112.188C317.871 112.242 318.012 112.319 318.14 112.417C318.272 112.51 318.371 112.62 318.436 112.745L318.463 111.623C318.331 111.501 318.156 111.404 317.938 111.332C317.726 111.254 317.477 111.211 317.19 111.204C316.779 111.195 316.405 111.271 316.069 111.432C315.739 111.593 315.474 111.823 315.275 112.123C315.082 112.422 314.981 112.775 314.971 113.18C314.961 113.579 315.045 113.936 315.223 114.25C315.407 114.558 315.66 114.8 315.982 114.977C316.31 115.153 316.679 115.246 317.09 115.256C317.377 115.262 317.628 115.235 317.844 115.172C318.065 115.104 318.245 115.01 318.383 114.889L318.41 113.766C318.34 113.889 318.239 113.996 318.107 114.089C317.981 114.176 317.838 114.246 317.679 114.298C317.521 114.345 317.357 114.367 317.188 114.363C316.98 114.358 316.79 114.306 316.618 114.206C316.451 114.106 316.319 113.971 316.222 113.8C316.125 113.629 316.079 113.431 316.085 113.206Z" fill="#303030"/>
<ellipse cx="230.041" cy="103.427" rx="17.6906" ry="17.7275" transform="rotate(21.7327 230.041 103.427)" fill="#CFDDFF"/>
<g filter="url(#filter2_d_1_585)">
<ellipse cx="230.042" cy="103.427" rx="9.18119" ry="9.20036" transform="rotate(21.7327 230.042 103.427)" fill="#2562FF"/>
<path d="M238.326 106.729C236.498 111.315 231.308 113.552 226.733 111.729C222.159 109.905 219.931 104.711 221.759 100.126C223.587 95.5404 228.777 93.3027 233.351 95.1261C237.926 96.9495 240.154 102.144 238.326 106.729Z" stroke="#CAD9FF" stroke-width="0.527677"/>
</g>
<path d="M133.387 148L131.896 295.766M268.811 149.251L267.32 297.017M202.14 148.635L200.649 296.401M336.87 149.879L335.379 297.646M166.722 148.308L165.231 296.074M302.84 149.565L301.349 297.331M235.475 148.943L233.984 296.709M370.899 150.194L369.408 297.96M104.041 269.34L403.361 272.105M104.679 206.139L403.999 208.903M104.355 238.185L403.675 240.949M105.001 174.093L404.322 176.858" stroke="#E4B5A8" stroke-width="0.411357"/>
<path d="M126 286L195.077 226.681L219.5 258L275 212L318.822 262.876L383 193" stroke="url(#paint5_linear_1_585)" stroke-width="8" stroke-linecap="round"/>
<g filter="url(#filter3_d_1_585)">
<ellipse cx="275.727" cy="212.741" rx="12.0979" ry="12.1232" transform="rotate(21.7327 275.727 212.741)" fill="white"/>
<path d="M285.107 216.48C283.035 221.677 277.155 224.208 271.979 222.145C266.802 220.081 264.275 214.199 266.347 209.002C268.418 203.805 274.298 201.274 279.475 203.337C284.652 205.401 287.179 211.283 285.107 216.48Z" stroke="#3DACB7" stroke-width="4"/>
</g>
<g filter="url(#filter4_d_1_585)">
<ellipse cx="217.727" cy="258.741" rx="12.0979" ry="12.1232" transform="rotate(21.7327 217.727 258.741)" fill="white"/>
<path d="M227.107 262.48C225.035 267.677 219.155 270.208 213.979 268.145C208.802 266.081 206.275 260.199 208.347 255.002C210.418 249.805 216.298 247.274 221.475 249.337C226.652 251.401 229.179 257.283 227.107 262.48Z" stroke="#3D95CF" stroke-width="4"/>
</g>
<g filter="url(#filter5_d_1_585)">
<ellipse cx="320.727" cy="258.741" rx="12.0979" ry="12.1232" transform="rotate(21.7327 320.727 258.741)" fill="white"/>
<path d="M330.107 262.48C328.035 267.677 322.155 270.208 316.979 268.145C311.802 266.081 309.275 260.199 311.347 255.002C313.418 249.805 319.298 247.274 324.475 249.337C329.652 251.401 332.179 257.283 330.107 262.48Z" stroke="#3DC39E" stroke-width="4"/>
</g>
<g filter="url(#filter6_d_1_585)">
<ellipse cx="191.704" cy="227.718" rx="12.0803" ry="12.1055" transform="rotate(21.7327 191.704 227.718)" fill="white"/>
<path d="M201.068 231.451C199 236.639 193.13 239.165 187.962 237.105C182.794 235.045 180.272 229.174 182.34 223.986C184.408 218.798 190.278 216.271 195.446 218.331C200.614 220.391 203.136 226.263 201.068 231.451Z" stroke="#3C88DC" stroke-width="4"/>
</g>
<defs>
<filter id="filter0_i_1_585" x="28.3973" y="54.5862" width="161.116" height="85.017" filterUnits="userSpaceOnUse" color-interpolation-filters="sRGB">
<feFlood flood-opacity="0" result="BackgroundImageFix"/>
<feBlend mode="normal" in="SourceGraphic" in2="BackgroundImageFix" result="shape"/>
<feColorMatrix in="SourceAlpha" type="matrix" values="0 0 0 0 0 0 0 0 0 0 0 0 0 0 0 0 0 0 127 0" result="hardAlpha"/>
<feOffset dx="-1.02691" dy="1.02691"/>
<feComposite in2="hardAlpha" operator="arithmetic" k2="-1" k3="1"/>
<feColorMatrix type="matrix" values="0 0 0 0 1 0 0 0 0 1 0 0 0 0 1 0 0 0 1 0"/>
<feBlend mode="normal" in2="shape" result="effect1_innerShadow_1_585"/>
</filter>
<filter id="filter1_i_1_585" x="201.929" y="71.1022" width="130.585" height="64.2501" filterUnits="userSpaceOnUse" color-interpolation-filters="sRGB">
<feFlood flood-opacity="0" result="BackgroundImageFix"/>
<feBlend mode="normal" in="SourceGraphic" in2="BackgroundImageFix" result="shape"/>
<feColorMatrix in="SourceAlpha" type="matrix" values="0 0 0 0 0 0 0 0 0 0 0 0 0 0 0 0 0 0 127 0" result="hardAlpha"/>
<feOffset dx="-1.02691" dy="1.02691"/>
<feComposite in2="hardAlpha" operator="arithmetic" k2="-1" k3="1"/>
<feColorMatrix type="matrix" values="0 0 0 0 1 0 0 0 0 1 0 0 0 0 1 0 0 0 1 0"/>
<feBlend mode="normal" in2="shape" result="effect1_innerShadow_1_585"/>
</filter>
<filter id="filter2_d_1_585" x="219.273" y="94.2273" width="24.7047" height="25.2602" filterUnits="userSpaceOnUse" color-interpolation-filters="sRGB">
<feFlood flood-opacity="0" result="BackgroundImageFix"/>
<feColorMatrix in="SourceAlpha" type="matrix" values="0 0 0 0 0 0 0 0 0 0 0 0 0 0 0 0 0 0 127 0" result="hardAlpha"/>
<feOffset dx="1.58303" dy="3.69374"/>
<feGaussianBlur stdDeviation="1.58303"/>
<feComposite in2="hardAlpha" operator="out"/>
<feColorMatrix type="matrix" values="0 0 0 0 0.66125 0 0 0 0 0.717563 0 0 0 0 0.8625 0 0 0 1 0"/>
<feBlend mode="normal" in2="BackgroundImageFix" result="effect1_dropShadow_1_585"/>
<feBlend mode="normal" in="SourceGraphic" in2="effect1_dropShadow_1_585" result="shape"/>
</filter>
<filter id="filter3_d_1_585" x="261.831" y="200.618" width="31.3726" height="32.0062" filterUnits="userSpaceOnUse" color-interpolation-filters="sRGB">
<feFlood flood-opacity="0" result="BackgroundImageFix"/>
<feColorMatrix in="SourceAlpha" type="matrix" values="0 0 0 0 0 0 0 0 0 0 0 0 0 0 0 0 0 0 127 0" result="hardAlpha"/>
<feOffset dx="1.79086" dy="4.17866"/>
<feGaussianBlur stdDeviation="1.79086"/>
<feComposite in2="hardAlpha" operator="out"/>
<feColorMatrix type="matrix" values="0 0 0 0 0.875 0 0 0 0 0.73125 0 0 0 0 0.707292 0 0 0 1 0"/>
<feBlend mode="multiply" in2="BackgroundImageFix" result="effect1_dropShadow_1_585"/>
<feBlend mode="normal" in="SourceGraphic" in2="effect1_dropShadow_1_585" result="shape"/>
</filter>
<filter id="filter4_d_1_585" x="203.831" y="246.618" width="31.3726" height="32.0062" filterUnits="userSpaceOnUse" color-interpolation-filters="sRGB">
<feFlood flood-opacity="0" result="BackgroundImageFix"/>
<feColorMatrix in="SourceAlpha" type="matrix" values="0 0 0 0 0 0 0 0 0 0 0 0 0 0 0 0 0 0 127 0" result="hardAlpha"/>
<feOffset dx="1.79086" dy="4.17866"/>
<feGaussianBlur stdDeviation="1.79086"/>
<feComposite in2="hardAlpha" operator="out"/>
<feColorMatrix type="matrix" values="0 0 0 0 0.875 0 0 0 0 0.73125 0 0 0 0 0.707292 0 0 0 1 0"/>
<feBlend mode="multiply" in2="BackgroundImageFix" result="effect1_dropShadow_1_585"/>
<feBlend mode="normal" in="SourceGraphic" in2="effect1_dropShadow_1_585" result="shape"/>
</filter>
<filter id="filter5_d_1_585" x="306.831" y="246.618" width="31.3726" height="32.0062" filterUnits="userSpaceOnUse" color-interpolation-filters="sRGB">
<feFlood flood-opacity="0" result="BackgroundImageFix"/>
<feColorMatrix in="SourceAlpha" type="matrix" values="0 0 0 0 0 0 0 0 0 0 0 0 0 0 0 0 0 0 127 0" result="hardAlpha"/>
<feOffset dx="1.79086" dy="4.17866"/>
<feGaussianBlur stdDeviation="1.79086"/>
<feComposite in2="hardAlpha" operator="out"/>
<feColorMatrix type="matrix" values="0 0 0 0 0.875 0 0 0 0 0.73125 0 0 0 0 0.707292 0 0 0 1 0"/>
<feBlend mode="multiply" in2="BackgroundImageFix" result="effect1_dropShadow_1_585"/>
<feBlend mode="normal" in="SourceGraphic" in2="effect1_dropShadow_1_585" result="shape"/>
</filter>
<filter id="filter6_d_1_585" x="177.826" y="215.613" width="31.3374" height="31.9711" filterUnits="userSpaceOnUse" color-interpolation-filters="sRGB">
<feFlood flood-opacity="0" result="BackgroundImageFix"/>
<feColorMatrix in="SourceAlpha" type="matrix" values="0 0 0 0 0 0 0 0 0 0 0 0 0 0 0 0 0 0 127 0" result="hardAlpha"/>
<feOffset dx="1.79086" dy="4.17866"/>
<feGaussianBlur stdDeviation="1.79086"/>
<feComposite in2="hardAlpha" operator="out"/>
<feColorMatrix type="matrix" values="0 0 0 0 0.875 0 0 0 0 0.73125 0 0 0 0 0.707292 0 0 0 1 0"/>
<feBlend mode="multiply" in2="BackgroundImageFix" result="effect1_dropShadow_1_585"/>
<feBlend mode="normal" in="SourceGraphic" in2="effect1_dropShadow_1_585" result="shape"/>
</filter>
<linearGradient id="paint0_linear_1_585" x1="146.232" y1="30.4321" x2="11.7943" y2="1.06736" gradientUnits="userSpaceOnUse">
<stop stop-color="#F4F4F4"/>
<stop offset="0.421875" stop-color="#F4F4F4"/>
<stop offset="1" stop-color="white"/>
</linearGradient>
<linearGradient id="paint1_linear_1_585" x1="108.885" y1="68.3843" x2="108.458" y2="136.402" gradientUnits="userSpaceOnUse">
<stop stop-color="#DADADA"/>
<stop offset="1" stop-color="white" stop-opacity="0"/>
</linearGradient>
<linearGradient id="paint2_linear_1_585" x1="107.962" y1="97.0059" x2="107.445" y2="121.765" gradientUnits="userSpaceOnUse">
<stop stop-color="#65D2E5"/>
<stop offset="1" stop-color="white" stop-opacity="0"/>
</linearGradient>
<linearGradient id="paint3_linear_1_585" x1="108.282" y1="85.6691" x2="107.48" y2="130.802" gradientUnits="userSpaceOnUse">
<stop stop-color="#6865E5"/>
<stop offset="1" stop-color="white" stop-opacity="0"/>
</linearGradient>
<linearGradient id="paint4_linear_1_585" x1="118.88" y1="23.2751" x2="10.2306" y2="-1.95031" gradientUnits="userSpaceOnUse">
<stop stop-color="#F4F4F4"/>
<stop offset="0.421875" stop-color="#F4F4F4"/>
<stop offset="1" stop-color="white"/>
</linearGradient>
<linearGradient id="paint5_linear_1_585" x1="342.131" y1="185.962" x2="130.79" y2="245.963" gradientUnits="userSpaceOnUse">
<stop stop-color="#3DCF92"/>
<stop offset="1" stop-color="#3D67FF"/>
</linearGradient>
</defs>
</svg>
