<svg width="1920" height="1146" viewBox="0 0 1920 1146" fill="none" xmlns="http://www.w3.org/2000/svg">
<rect y="-10" width="1920" height="1101" fill="url(#paint0_linear_1_1119)"/>
<mask id="mask0_1_1119" style="mask-type:alpha" maskUnits="userSpaceOnUse" x="0" y="-10" width="1920" height="1156">
<rect y="-10" width="1920" height="1156" fill="#D9D9D9"/>
</mask>
<g mask="url(#mask0_1_1119)">
<circle cx="1679" cy="406" r="604" fill="#F4F6FB"/>
<g filter="url(#filter0_f_1_1119)">
<circle cx="1546" cy="399" r="114" fill="#CFDDEC"/>
</g>
<path d="M1509.42 647.412L1453.78 667.399M1509.42 647.412L1509.42 206.5M1509.42 647.412L1573.29 656.709M1509.42 647.412L1746.5 568.712M1746.5 259.396L1690.21 246.838M1746.5 259.396L1746.5 341.644M1746.5 259.396L1311.89 391.315M1509.42 206.5L1446.2 223.062M1509.42 206.5L1573.29 220.75M1398.14 687.387L1322.66 714.5L1319.92 632.252M1398.14 687.387L1382.98 239.624M1398.14 687.387L1453.78 667.399M1382.98 239.624L1307.5 259.397L1309.7 325.356M1382.98 239.624L1446.2 223.062M1446.2 223.062L1453.78 667.399M1573.29 220.75L1573.29 656.709M1573.29 220.75L1633.93 234.28M1573.29 656.709L1633.93 665.536M1633.93 665.536L1633.93 234.28M1633.93 665.536L1690.21 673.73M1633.93 665.536L1746.5 625.318M1633.93 234.28L1690.21 246.838M1633.93 234.28L1309.7 325.356M1690.21 246.838L1690.21 673.73M1690.21 673.73L1746.5 681.923L1746.5 625.318M1319.92 632.252L1746.5 491.948M1319.92 632.252L1317.62 563.229M1746.5 491.948L1746.5 414.861M1746.5 491.948L1746.5 568.712M1317.62 563.229L1746.5 414.861M1317.62 563.229L1314.81 478.723M1746.5 414.861L1746.5 341.644M1314.81 478.723L1746.5 341.644M1314.81 478.723L1311.89 391.315M1311.89 391.315L1309.7 325.356M1746.5 568.712L1746.5 625.318" stroke="url(#paint1_linear_1_1119)" stroke-width="2"/>
</g>
<circle cx="895" cy="255" r="39" fill="#F8DFE4"/>
<circle cx="152" cy="798" r="26" fill="#D4EBFB"/>
<circle cx="803" cy="961" r="20.5" stroke="#F8BDBD" stroke-width="3"/>
<path d="M1436.83 841.135C1438.83 839.98 1441.33 841.424 1441.33 843.733L1441.33 869.844C1441.33 872.153 1438.83 873.596 1436.83 872.442L1414.21 859.386C1412.21 858.232 1412.21 855.345 1414.21 854.19L1436.83 841.135Z" fill="#FDD6D0"/>
<path fill-rule="evenodd" clip-rule="evenodd" d="M1280.69 265.922C1298.44 255.416 1304.47 232.55 1294.13 214.642C1283.79 196.734 1260.97 190.519 1243 200.638L1243.53 201.557C1261 191.732 1283.16 197.772 1293.21 215.173C1303.26 232.573 1297.4 254.789 1280.16 265.003L1280.69 265.922ZM1275.38 256.726C1288.05 249.152 1292.34 232.78 1284.93 219.951C1277.53 207.121 1261.2 202.647 1248.31 209.834L1248.84 210.754C1261.23 203.86 1276.9 208.16 1284.01 220.482C1291.13 232.803 1287.02 248.526 1274.85 255.806L1275.38 256.726ZM1270.07 247.529C1277.67 242.889 1280.21 233.011 1275.74 225.26C1271.26 217.509 1261.44 214.775 1253.62 219.031L1254.15 219.951C1261.46 215.988 1270.64 218.548 1274.82 225.791C1279 233.034 1276.63 242.262 1269.54 246.609L1270.07 247.529Z" fill="#D7E1EB"/>
<defs>
<filter id="filter0_f_1_1119" x="1232" y="85" width="628" height="628" filterUnits="userSpaceOnUse" color-interpolation-filters="sRGB">
<feFlood flood-opacity="0" result="BackgroundImageFix"/>
<feBlend mode="normal" in="SourceGraphic" in2="BackgroundImageFix" result="shape"/>
<feGaussianBlur stdDeviation="100" result="effect1_foregroundBlur_1_1119"/>
</filter>
<linearGradient id="paint0_linear_1_1119" x1="180" y1="116" x2="1554.5" y2="1047" gradientUnits="userSpaceOnUse">
<stop stop-color="#E9F7FF"/>
<stop offset="1" stop-color="#FFDBD5"/>
</linearGradient>
<linearGradient id="paint1_linear_1_1119" x1="1725" y1="289" x2="1567.5" y2="491" gradientUnits="userSpaceOnUse">
<stop stop-color="#CFDEEC"/>
<stop offset="1" stop-color="#B0C2D5" stop-opacity="0"/>
</linearGradient>
</defs>
</svg>
